<svg xmlns="http://www.w3.org/2000/svg" width="800" height="850" viewBox="0 0 800 850"><defs><linearGradient id="bg" x2="1" y2="1"><stop stop-color="#e1e5db"/><stop offset="1" stop-color="#b6c2b0"/></linearGradient><linearGradient id="glass"><stop stop-color="#fff" stop-opacity=".7"/><stop offset=".17" stop-color="#eef3e9" stop-opacity=".3"/><stop offset=".48" stop-color="#809c83" stop-opacity=".22"/><stop offset=".79" stop-color="#fff" stop-opacity=".67"/><stop offset="1" stop-color="#4f6b52" stop-opacity=".4"/></linearGradient><linearGradient id="cap" x2="1" y2="0"><stop stop-color="#0d2c22"/><stop offset=".45" stop-color="#315544"/><stop offset="1" stop-color="#153c2f"/></linearGradient><linearGradient id="paper" x2="1" y2="1"><stop stop-color="#fffef8"/><stop offset="1" stop-color="#e8e5d8"/></linearGradient><filter id="shadow"><feGaussianBlur stdDeviation="14"/></filter><filter id="grain"><feTurbulence type="fractalNoise" baseFrequency=".7" numOctaves="3" stitchTiles="stitch"/><feColorMatrix type="saturate" values="0"/><feComponentTransfer><feFuncA type="linear" slope=".035"/></feComponentTransfer><feBlend in="SourceGraphic" mode="multiply"/></filter></defs><rect width="800" height="850" fill="#e9e6da"/><path d="M800 0L0 635v215h235L800 370z" fill="#f9f7ed"/><path d="M0 200h800M0 211h800" stroke="#b2b8a5" opacity=".35"/><path d="M200 0v510M212 0v500" stroke="#b2b8a5" opacity=".35"/><ellipse cx="430" cy="710" rx="220" ry="25" fill="#153c2f" opacity=".14" filter="url(#shadow)"/><path d="M289 210h110v270l90 166q28 65-36 65H244q-63 0-35-65l80-166z" fill="url(#glass)" stroke="#80937a" stroke-opacity=".6" stroke-width="2"/><path d="M247 585h200l40 75q10 45-34 45H244q-48 0-33-44z" fill="#b5c4a3" opacity=".45"/><ellipse cx="344" cy="210" rx="56" ry="10" fill="#e9ebe1" stroke="#8a9d85"/><path d="M302 233v250l-77 167" stroke="#fff" stroke-width="5" fill="none" opacity=".8"/><path d="M276 602h33m-22-42h22m-10-44h10" stroke="#667e67" stroke-width="2"/><g transform="translate(505 443) scale(1.03)"><ellipse cx="70" cy="226" rx="80" ry="12" fill="#1b382b" opacity=".15" filter="url(#shadow)"/><rect x="12" y="30" width="116" height="191" rx="22" fill="url(#glass)" stroke="#688368" stroke-opacity=".38"/><path d="M23 52v147q0 11 10 12" stroke="#fff" opacity=".75" fill="none" stroke-width="3"/><rect x="18" y="0" width="104" height="42" rx="7" fill="url(#cap)"/><path d="M24 12h91M24 17h91M24 22h91M24 27h91" stroke="#88a18a" opacity=".16"/><rect x="13" y="83" width="114" height="104" fill="url(#paper)"/><g fill="#153c2f"><text x="25" y="106" font-family="Georgia" font-size="18">✳</text><text x="47" y="104" font-family="Arial" font-size="6" letter-spacing="1.3">COLLECTION</text><path d="M25 117h91" stroke="#153c2f" stroke-opacity=".3"/><text x="25" y="146" font-family="Georgia" font-size="21">No. 03</text><text x="25" y="170" font-family="Arial" font-size="5" letter-spacing="1">ILLUSTRATIVE SAMPLE</text></g><ellipse cx="70" cy="215" rx="45" ry="3" fill="#fff" opacity=".2"/></g><rect x="77" y="723" width="644" height="130" fill="#d8d4c3"/><path d="M77 723l67-32h573l4 32z" fill="#f4f0e1"/></svg>